<svg width="24" height="24" viewBox="0 0 24 24" fill="none" xmlns="http://www.w3.org/2000/svg">
<path fill-rule="evenodd" clip-rule="evenodd" d="M9.99862 6H11.998V2H9.99862V6ZM2.00098 12H5.9998V10H2.00098V12ZM6.75717 8.1715L3.93001 5.3425L5.34359 3.9285L8.17076 6.7575L6.75717 8.1715ZM5.34349 18.0709L3.92991 16.6569L6.75707 13.8279L8.17066 15.2419L5.34349 18.0709ZM15.24 8.1715L13.8264 6.7575L16.6536 3.9285L18.0671 5.3425L15.24 8.1715ZM12.7 21.75L8.91684 8.9122L21.75 12.7L18.81 15.64L21.61 18.43L18.43 21.61L15.64 18.81L12.7 21.75Z" fill="white"/>
</svg>
